<svg width="2000" height="1165" viewBox="0 0 2000 1165" fill="none" xmlns="http://www.w3.org/2000/svg">
<path d="M1173.91 1163.04L1510.87 581.522L1173.91 0H2000L1918.48 141.304H1413.04L1668.48 581.522L1413.04 1021.74H1918.48L2000 1163.04H1173.91Z" fill="#FFFF00"/>
<path d="M0 1.65332L206.756 360.225L413.509 718.797L620.266 360.225L827.022 1.65332H413.509H0ZM236.516 140.966H413.509H590.506L502.008 294.247L413.509 447.532L325.014 294.247L236.516 140.966Z" fill="#FFFF00"/>
<path d="M413.509 447.545L206.756 806.117L0 1164.69H413.509H827.022L620.265 806.117L413.509 447.545ZM413.509 718.81L502.008 872.095L590.506 1025.38H413.509H236.516L325.014 872.095L413.509 718.81Z" fill="#FFFF00"/>
<path d="M924.64 1022.84H1060.66V1158.86H924.64V1022.84Z" fill="#FFFF00" stroke="#FFFF00"/>
</svg>
