<svg width="700" height="408" viewBox="0 0 700 408" fill="none" xmlns="http://www.w3.org/2000/svg">
<path d="M410.758 406.954L528.661 203.477L410.758 0H699.81L671.285 49.4431H494.431L583.809 203.477L494.431 357.511H671.285L699.81 406.954H410.758Z" fill="#FFFF00"/>
<path d="M0 0.578125L72.3451 126.044L144.689 251.51L217.034 126.044L289.379 0.578125H144.689H0ZM82.758 49.3244H144.689H206.621L175.655 102.958L144.689 156.593L113.724 102.958L82.758 49.3244Z" fill="#FFFF00"/>
<path d="M144.689 156.598L72.345 282.064L0 407.53H144.689H289.379L217.034 282.064L144.689 156.598ZM144.689 251.515L175.655 305.15L206.621 358.784H144.689H82.758L113.724 305.15L144.689 251.515Z" fill="#FFFF00"/>
<path d="M323.861 358.222H370.806V405.167H323.861V358.222Z" fill="#FFFF00" stroke="#FFFF00"/>
</svg>
